<svg width="128" height="128" viewBox="0 0 1024 1024" xmlns="http://www.w3.org/2000/svg">
  <!-- Mythic Fishing favicon — compact standalone copy of the app icon
       (source of truth: scripts/branding/brand.html). -->
  <defs>
    <linearGradient id="sea" x1="0" y1="0" x2="0" y2="1">
      <stop offset="0" stop-color="#3f93a3"/>
      <stop offset="1" stop-color="#123c47"/>
    </linearGradient>
    <linearGradient id="goldBody" x1="0" y1="0" x2="0" y2="1">
      <stop offset="0" stop-color="#f7c95c"/>
      <stop offset="1" stop-color="#cd9130"/>
    </linearGradient>
    <radialGradient id="glow" cx="0.5" cy="0.5" r="0.5">
      <stop offset="0" stop-color="#ffe9a8" stop-opacity="0.55"/>
      <stop offset="0.55" stop-color="#ffd97a" stop-opacity="0.22"/>
      <stop offset="1" stop-color="#ffd97a" stop-opacity="0"/>
    </radialGradient>
  </defs>
  <rect width="1024" height="1024" rx="180" fill="url(#sea)"/>
  <g>
    <polygon points="0,700 128,660 256,702 384,656 512,700 640,662 768,702 896,654 1024,698 1024,1024 0,1024" fill="#2c6d7c"/>
    <polygon points="0,770 170,734 340,776 512,730 680,776 850,736 1024,770 1024,1024 0,1024" fill="#3f8fa0"/>
    <polygon points="0,850 200,814 400,856 600,810 800,856 1024,820 1024,1024 0,1024" fill="#57a7b8"/>
  </g>
  <circle cx="512" cy="420" r="400" fill="url(#glow)"/>
  <g transform="rotate(-14 512 420) translate(152 160)">
    <path d="M 175 280 L 40 160 L 122 280 L 40 400 Z" fill="#c98d2e"/>
    <path d="M 320 230 L 395 85 L 500 215 Z" fill="#d99b30"/>
    <path d="M 350 390 L 402 474 L 472 384 Z" fill="#d99b30"/>
    <path d="M 150 280 C 250 150, 520 128, 660 248 C 694 277, 694 289, 662 314 C 528 432, 253 416, 150 280 Z" fill="url(#goldBody)"/>
    <path d="M 165 280 L 302 192 L 420 298 Z" fill="#ffe08a" opacity="0.55"/>
    <path d="M 302 192 L 420 298 L 558 194 Z" fill="#f7c95c" opacity="0.5"/>
    <path d="M 420 298 L 558 194 L 645 262 Z" fill="#ffd97a" opacity="0.45"/>
    <path d="M 205 328 L 420 402 L 600 318 L 420 336 Z" fill="#8a5f16" opacity="0.3"/>
    <path d="M 522 192 C 549 250, 549 312, 517 364" stroke="#b57f23" stroke-width="11" fill="none" opacity="0.65" stroke-linecap="round"/>
    <circle cx="588" cy="250" r="24" fill="#3a2a08"/>
    <circle cx="596" cy="242" r="8.5" fill="#fff" opacity="0.92"/>
  </g>
</svg>
